<?xml version="1.0" encoding="UTF-8" standalone="no"?>
<!-- Created with Inkscape (http://www.inkscape.org/) -->

<svg
   xmlns:dc="http://purl.org/dc/elements/1.1/"
   xmlns:cc="http://creativecommons.org/ns#"
   xmlns:rdf="http://www.w3.org/1999/02/22-rdf-syntax-ns#"
   xmlns:svg="http://www.w3.org/2000/svg"
   xmlns="http://www.w3.org/2000/svg"
   xmlns:sodipodi="http://sodipodi.sourceforge.net/DTD/sodipodi-0.dtd"
   xmlns:inkscape="http://www.inkscape.org/namespaces/inkscape"
   width="46.693382mm"
   height="38.621468mm"
   viewBox="0 0 165.44899 136.84772"
   id="svg2"
   version="1.1"
   inkscape:version="0.91 r13725"
   sodipodi:docname="logo.svg">
  <defs
     id="defs4" />
  <sodipodi:namedview
     id="base"
     pagecolor="#ffffff"
     bordercolor="#666666"
     borderopacity="1.0"
     inkscape:pageopacity="0.0"
     inkscape:pageshadow="2"
     inkscape:zoom="0.35"
     inkscape:cx="117.86188"
     inkscape:cy="-346.40228"
     inkscape:document-units="px"
     inkscape:current-layer="layer1"
     showgrid="false"
     fit-margin-top="0"
     fit-margin-left="0"
     fit-margin-right="0"
     fit-margin-bottom="0"
     inkscape:window-width="1280"
     inkscape:window-height="751"
     inkscape:window-x="0"
     inkscape:window-y="1"
     inkscape:window-maximized="1" />
  <metadata
     id="metadata7">
    <rdf:RDF>
      <cc:Work
         rdf:about="">
        <dc:format>image/svg+xml</dc:format>
        <dc:type
           rdf:resource="http://purl.org/dc/dcmitype/StillImage" />
        <dc:title></dc:title>
      </cc:Work>
    </rdf:RDF>
  </metadata>
  <g
     inkscape:label="Layer 1"
     inkscape:groupmode="layer"
     id="layer1"
     transform="translate(160.00474,-49.112211)">
    <path
       style="fill:#729fcf"
       d="m -85.764577,184.6396 c -11.58535,-5.04222 -6.99706,-21.1387 10.98817,-38.54831 2.72115,-2.63406 4.63353,-5.38446 4.63353,-6.66397 l 0,-2.17874 -4.86627,2.05594 c -5.92381,2.50274 -8.88388,1.94432 -13.85829,-2.61439 -3.23287,-2.9627 -3.67343,-3.96762 -4.05558,-9.25086 -0.29128,-4.0269 0.0856,-7.15816 1.17571,-9.76705 0.88243,-2.11197 1.60443,-4.44953 1.60443,-5.19457 0,-1.40605 -9.46111,-9.40113 -11.124983,-9.40113 -0.55962,0 -0.51869,0.79729 0.10031,1.9539 2.087453,3.90043 2.357603,13.38716 0.55858,19.6152 -2.28292,7.90323 -9.2459,14.96658 -15.7047,15.93109 -4.78742,0.71491 -9.17536,-0.55279 -12.41486,-3.58672 -2.07202,-1.94054 -2.12104,-1.93729 -7.5,0.49795 -11.9946,5.43035 -16.29763,4.36165 -20.64144,-5.12648 -9.75605,-21.31002 4.80746,-74.571 22.40044,-81.92182 7.96022,-3.32599 11.32665,-0.49308 11.32665,9.53154 0,9.95573 -2.81326,17.92626 -14.09336,39.92931 -7.47302,14.57695 -9.90664,20.26833 -9.90664,23.16822 0,7.47149 1.40444,8.37262 7.89131,5.06326 l 3.81163,-1.94455 0.5855,-7.74176 c 0.80206,-10.60499 4.40859,-17.66889 11.14846,-21.83583 4.25554,-2.631 5.84508,-3.03298 11.98468,-3.03086 8.36948,0.003 14.916043,2.73 20.476783,8.52998 l 3.51894,3.67034 5.54135,-5.76604 c 6.94634,-7.228 12.38795,-9.2854 16.74603,-6.33144 1.53742,1.04209 4.36767,2.11971 6.28944,2.39471 5.14642,0.73644 5.35699,3.35762 2.05532,25.58423 -0.66049,4.44633 -1.03982,9.62133 -0.84297,11.5 l 0.35792,3.41577 5.56703,-5.68155 c 5.49582,-5.60888 5.57476,-5.77382 6.17186,-12.89594 0.82869,-9.88469 4.45504,-17.17911 10.42149,-20.96292 11.66784,-7.39953 27.2754899,-3.4211 37.2378899,9.49201 3.35109,4.34363 3.99914,5.85243 3.45128,8.03527 l -0.67451,2.68747 -5.11972004,-4.92521 C -9.4123771,103.77414 -14.569377,100.62107 -11.970577,105.32652 c 2.1091099,3.81882 1.64127,17.53778 -0.77582,22.75 -5.66139,12.20827 -18.30357,16.52232 -26.62625,9.08601 l -3.14132,-2.80677 -5.18478,4.11038 c -2.85164,2.26071 -6.62856,5.23538 -8.39317,6.61038 -3.01634,2.35036 -3.28612,3.09855 -4.50727,12.5 -1.6712,12.86621 -3.12182,17.53251 -6.86033,22.06797 -4.95307,6.00894 -11.72788,7.85765 -18.30506,4.99511 z m 9.49875,-10.1339 c 3.31593,-4.21553 7.31801,-20.97102 4.82078,-20.18316 -3.36197,1.06067 -12.49639,18.23058 -11.32403,21.28569 0.88254,2.29987 4.27999,1.72388 6.50325,-1.10253 z m -36.217443,-46.24086 c 1.22331,-1.82142 2.74339,-5.81259 3.37795,-8.86927 3.25433,-15.67598 -5.44231,-23.54624 -11.98022,-10.84183 -3.35647,6.52225 -3.6843,18.06753 -0.60952,21.46513 2.75029,3.03903 6.46809,2.33112 9.21179,-1.75403 z m 39.479783,0.81168 c 1.0247,-1.39222 2.95238,-7.98906 4.35033,-14.88752 2.95815,-14.59762 2.82845,-13.11248 1.14514,-13.11248 -4.90227,0 -13.63486,14.43649 -13.63486,22.54078 0,2.52489 0.48045,5.48843 1.06766,6.58565 1.40107,2.61792 4.70292,2.09198 7.07173,-1.12643 z m 49.52022,-0.81168 c 1.22331,-1.82142 2.74339,-5.81259 3.37795,-8.86927 3.25433,-15.67598 -5.44231,-23.54624 -11.98022,-10.84183 -3.35647,6.52225 -3.6843,18.06753 -0.60952,21.46513 2.75029,3.03903 6.46809,2.33112 9.21179,-1.75403 z M -141.56641,90.07652 c 6.60735,-13.80148 10.28513,-27.50049 7.98818,-29.75447 -1.49606,-1.46807 -6.57108,6.27042 -8.98066,13.69389 -2.72387,8.39175 -5.60321,21.84123 -5.54855,25.91754 l 0.0354,2.64304 1.45751,-2.5 c 0.80164,-1.375 3.07327,-5.875 5.04809,-10 z"
       id="path4201"
       inkscape:connector-curvature="0" />
  </g>
</svg>
