<?xml version="1.0" encoding="UTF-8" standalone="no"?>
<!-- Created with Inkscape (http://www.inkscape.org/) -->

<svg
   xmlns:dc="http://purl.org/dc/elements/1.1/"
   xmlns:cc="http://creativecommons.org/ns#"
   xmlns:rdf="http://www.w3.org/1999/02/22-rdf-syntax-ns#"
   xmlns:svg="http://www.w3.org/2000/svg"
   xmlns="http://www.w3.org/2000/svg"
   xmlns:sodipodi="http://sodipodi.sourceforge.net/DTD/sodipodi-0.dtd"
   xmlns:inkscape="http://www.inkscape.org/namespaces/inkscape"
   width="161.89659mm"
   height="114.02354mm"
   viewBox="0 0 573.64934 404.02043"
   id="svg2"
   version="1.1"
   inkscape:version="0.91 r13725"
   sodipodi:docname="logo.svg">
  <defs
     id="defs4" />
  <sodipodi:namedview
     id="base"
     pagecolor="#ffffff"
     bordercolor="#666666"
     borderopacity="1.0"
     inkscape:pageopacity="0.0"
     inkscape:pageshadow="2"
     inkscape:zoom="1.2085241"
     inkscape:cx="314.14057"
     inkscape:cy="209.1777"
     inkscape:document-units="px"
     inkscape:current-layer="layer1"
     showgrid="false"
     showguides="true"
     inkscape:guide-bbox="true"
     inkscape:snap-bbox="false"
     inkscape:bbox-nodes="true"
     inkscape:bbox-paths="true"
     inkscape:snap-bbox-edge-midpoints="true"
     inkscape:object-paths="true"
     inkscape:snap-to-guides="true"
     inkscape:snap-grids="false"
     inkscape:snap-global="false"
     fit-margin-top="10"
     fit-margin-left="10"
     fit-margin-right="10"
     fit-margin-bottom="10"
     inkscape:window-width="1280"
     inkscape:window-height="751"
     inkscape:window-x="0"
     inkscape:window-y="1"
     inkscape:window-maximized="1" />
  <metadata
     id="metadata7">
    <rdf:RDF>
      <cc:Work
         rdf:about="">
        <dc:format>image/svg+xml</dc:format>
        <dc:type
           rdf:resource="http://purl.org/dc/dcmitype/StillImage" />
        <dc:title></dc:title>
      </cc:Work>
    </rdf:RDF>
  </metadata>
  <g
     inkscape:label="Layer 1"
     inkscape:groupmode="layer"
     id="layer1"
     transform="translate(-17.518624,-251.80964)">
    <path
       style="fill:#204a87;fill-opacity:1;stroke:#000000;stroke-width:3;stroke-linecap:square;stroke-linejoin:round;stroke-miterlimit:4;stroke-dasharray:none;stroke-opacity:1"
       d="M 344.89062,-6.4570312 A 249.89159,165.07739 0 0 0 95,158.62109 249.89159,165.07739 0 0 0 344.89062,323.69727 249.89159,165.07739 0 0 0 594.7832,158.62109 249.89159,165.07739 0 0 0 344.89062,-6.4570312 Z M 177.34961,55.572266 c 4.17076,0 7.37504,2.707311 9.60937,8.125 1.78748,4.213758 2.67969,8.729198 2.67969,13.544922 0,10.233412 -0.96787,25.433762 -2.90429,45.599612 -1.93643,20.16584 -2.9043,35.29012 -2.9043,45.37304 0,17.75798 4.99066,26.63672 14.9707,26.63672 4.46868,0 10.87332,-1.5058 19.21484,-4.51562 8.34153,-3.16032 14.74617,-4.74024 19.21485,-4.74024 4.17076,0 7.37308,1.88225 9.60742,5.64453 1.78747,3.00983 2.68164,6.77237 2.68164,11.28711 -16.08723,5.86917 -33.06865,8.80274 -50.94336,8.80274 -14.00185,0 -23.83186,-4.96601 -29.49219,-14.89844 -4.31972,-7.67506 -6.48046,-19.11287 -6.48046,-34.3125 0,-8.87899 0.67111,-22.04691 2.01171,-39.50391 1.48956,-17.45699 2.23438,-30.624912 2.23438,-39.503902 0,-1.655405 -0.14935,-4.288598 -0.44727,-7.90039 -0.29791,-3.611793 -0.44726,-6.321057 -0.44726,-8.126954 0,-1.805896 0.14935,-3.836379 0.44726,-6.09375 2.97912,-3.611792 6.62755,-5.417968 10.94727,-5.417968 z m 215.48828,53.046874 c 6.25615,0 12.21468,2.93553 17.875,8.80469 4.17077,5.56818 8.34095,11.06082 12.51172,16.47851 1.19165,1.50492 3.05369,2.85857 5.58594,4.0625 3.12807,1.50492 5.13946,2.63427 6.0332,3.38672 -0.29791,3.76229 -1.26578,10.38428 -2.9043,19.86524 -1.48956,8.27702 -2.23437,14.89902 -2.23437,19.86523 0,4.51474 0.22305,11.28693 0.66992,20.31641 0.44687,9.02948 0.66992,15.80166 0.66992,20.3164 0,9.33047 -0.89221,16.25284 -2.67969,20.76758 -2.08538,5.71867 -6.03447,10.30823 -11.84375,13.76953 -5.80928,3.6118 -11.8415,5.41797 -18.09765,5.41797 -6.55406,0 -14.67138,-1.80617 -24.35352,-5.41797 -11.61856,-4.21375 -17.42773,-8.87938 -17.42773,-13.99609 0,-6.62162 3.05296,-9.93164 9.16015,-9.93164 2.83017,0 4.76591,0.82702 5.8086,2.48242 1.93642,3.00983 3.203,4.816 3.79883,5.41797 0.74478,0.60196 3.20228,1.27879 7.37304,2.03125 4.17077,0.90295 7.07633,1.35547 8.71485,1.35547 13.40603,0 20.10937,-8.50424 20.10937,-25.50977 0,-4.96621 -0.22305,-9.17932 -0.66992,-12.64062 -6.4051,5.56818 -14.07632,8.35156 -23.01367,8.35156 -3.7239,0 -7.89604,-1.05328 -12.51367,-3.16016 -4.61764,-2.10688 -8.11671,-4.58988 -10.5,-7.44922 -4.61764,-5.41768 -6.92774,-13.46745 -6.92774,-24.15234 0,-12.79176 2.90557,-26.86277 8.71485,-42.21289 7.14988,-18.81142 15.86266,-28.21875 26.14062,-28.21875 z m -88.49414,0.67774 c 3.87285,0 8.71416,1.7301 14.52344,5.1914 16.68306,10.08292 25.02539,26.56281 25.02539,49.4375 0,13.54422 -3.35167,25.13223 -10.05469,34.76367 -7.74571,10.98587 -18.02378,16.47852 -30.83398,16.47852 -13.10812,0 -23.01379,-4.51544 -29.7168,-13.54492 -6.10719,-7.97605 -9.16016,-18.81115 -9.16016,-32.50586 0,-13.54422 3.35168,-26.33569 10.05469,-38.375 7.74571,-14.29668 17.79877,-21.44531 30.16211,-21.44531 z m 183.28711,0 c 3.87285,0 8.71416,1.7301 14.52344,5.1914 16.68306,10.08292 25.02343,26.56281 25.02343,49.4375 0,13.54422 -3.35167,25.13223 -10.05468,34.76367 -7.74571,10.98587 -18.02378,16.47852 -30.83399,16.47852 -13.10812,0 -23.01378,-4.51544 -29.71679,-13.54492 -6.1072,-7.97605 -9.16016,-18.81115 -9.16016,-32.50586 0,-13.54422 3.35167,-26.33569 10.05469,-38.375 7.7457,-14.29668 17.80072,-21.44531 30.16406,-21.44531 z m -92.78125,19.1875 c -4.91554,0 -9.01203,6.99844 -12.28906,20.99414 -2.3833,10.68488 -3.57422,19.94007 -3.57422,27.76562 0,14.74815 3.79778,22.12109 11.39453,22.12109 7.14988,0 12.8097,-5.86909 16.98047,-17.60742 3.27703,-9.02948 4.91601,-17.98234 4.91601,-26.86133 0,-2.25737 -1.04352,-4.13961 -3.1289,-5.64453 -0.89374,-13.8452 -5.65939,-20.76757 -14.29883,-20.76757 z m -87.1543,0.45117 c -7.89466,0 -13.85124,4.89189 -17.87304,14.67383 -2.97912,7.37407 -4.46875,15.72617 -4.46875,25.05664 0,20.01535 5.88287,30.02343 17.65039,30.02343 7.59675,0 13.25657,-4.13899 16.98047,-12.41601 2.83016,-6.32064 4.24609,-13.91984 4.24609,-22.79883 0,-23.02518 -5.51242,-34.53906 -16.53516,-34.53906 z m 183.28711,0 c -7.89466,0 -13.85319,4.89189 -17.875,14.67383 -2.97912,7.37407 -4.46875,15.72617 -4.46875,25.05664 0,20.01535 5.88288,30.02343 17.65039,30.02343 7.59675,0 13.25853,-4.13899 16.98242,-12.41601 2.83017,-6.32064 4.24415,-13.91984 4.24414,-22.79883 0,-23.02518 -5.51046,-34.53906 -16.5332,-34.53906 z"
       transform="translate(-40.548305,295.19974)"
       id="path4207"
       inkscape:connector-curvature="0" />
  </g>
</svg>
